M48
METRIC,LZ
T01C.3302
T02C.635
T03C.7874
T04C.9144
;LEADER: 12 
;HEADER: 
;CODE  : ASCII 
;FILE  : VCO-1-2.drl for board C:/Users/Usuario/Documents/Orcad/Diseño no lineal/VCO/allegro/#Taaaaaw15768.tmp ... layers TOP and BOTTOM
;T01 Holesize 1. = 0.330200 Tolerance = +0.000000/-0.000000 PLATED MM Quantity = 55
;T02 Holesize 2. = 0.635000 Tolerance = +0.000000/-0.000000 PLATED MM Quantity = 8
;T03 Holesize 3. = 0.787400 Tolerance = +0.000000/-0.000000 PLATED MM Quantity = 3
;T04 Holesize 4. = 0.914400 Tolerance = +0.000000/-0.000000 PLATED MM Quantity = 10
%
G90
T01
X00274955Y00220345
X002794Y00222885
X00274955Y00226695
X002794Y00234315
X0027813Y0023495
X0028067Y0023495
X00280035Y00236855
X0028702Y0024765
X0028575Y00225425
X00283845Y00220345
X00283845Y0021717
X0028829Y00215265
X00282575Y00207645
X00295275Y00217805
X00295275Y0022225
X0029464Y0024638
X00304165Y0024765
X00302895Y0024511
X0030226Y0024384
X00297815Y0023114
X00297815Y00225425
X00301498Y00224663
X0030226Y002159
X00300355Y0021336
X00309245Y00211455
X003070225Y002130425
X003048Y0021336
X0030734Y0021463
X0030988Y0021717
X0030988Y0021971
X00310515Y00222885
X0030607Y00229235
X003074035Y002356485
X003048Y00236855
X00310388Y0024257
X00309245Y0024638
X00316865Y00241935
X00319405Y00239395
X00314325Y0023749
X0031369Y0023622
X00314325Y0023495
X00318135Y0023368
X003142678Y002336228
X00314325Y00231775
X0031369Y00230505
X003168015Y002286635
X00314325Y00221615
X0032131Y00216535
X003201035Y002221865
X0032385Y0022352
X0032258Y0023114
X0032004Y00233045
X0032258Y00233045
X00324485Y00234315
X003209925Y002359025
T02
X0032258Y00227711
X0032258Y00236855
X0032131Y00240665
X00312166Y00240665
X00302895Y00241554
X00302895Y0023241
X0027305Y0024257
X0027305Y00233426
T03
X00283845Y0021209
R02X0000127
T04
X002921Y002413
R03Y-0000254
X0029591Y002286
X0029845Y002286
X0029972Y0023368
R03Y0000254
M30
